<svg width="103" height="103" viewBox="0 0 103 103" fill="none" xmlns="http://www.w3.org/2000/svg">
<g clip-path="url(#clip0_9_2)">
<g filter="url(#filter0_d_9_2)">
<path fill-rule="evenodd" clip-rule="evenodd" d="M51 -1C51.8879 -1 52.7393 -0.647303 53.3671 -0.0194989L102.02 48.6329C103.327 49.9402 103.327 52.0598 102.02 53.3671L53.3671 102.02C52.7393 102.647 51.8879 103 51 103C50.1122 103 49.2607 102.647 48.6329 102.02L-0.0194992 53.3671C-1.32683 52.0598 -1.32683 49.9402 -0.0194991 48.6329L48.6329 -0.0194991C49.2607 -0.647303 50.1122 -1 51 -1ZM7.08192 51L26.3926 70.3107L29.5327 67.1706L15.7292 53.3671C14.4219 52.0598 14.4219 49.9402 15.7292 48.6329L54.1401 10.222L51 7.08192L7.08192 51ZM58.8744 14.9563L22.8307 51L26.2019 54.3712L48.6532 32.3015C49.9637 31.0132 52.0677 31.0222 53.3671 32.3217L61.2415 40.196C62.5488 41.5034 62.5488 43.623 61.2415 44.9303L47.4381 58.7338L51 62.2957L70.4513 42.8444L64.6628 37.0559C64.035 36.4281 63.6823 35.5767 63.6823 34.6888C63.6823 33.801 64.035 32.9495 64.6628 32.3217L70.4513 26.5332L58.8744 14.9563ZM75.1856 31.2675L71.7642 34.6888L85.7083 48.6329C86.3361 49.2607 86.6888 50.1122 86.6888 51C86.6888 51.8879 86.3361 52.7393 85.7083 53.3671L47.5787 91.4968L51 94.9181L94.9181 51L75.1856 31.2675ZM42.8444 86.7625L78.6069 51L75.1856 47.5787L53.3671 69.3971C52.0598 70.7044 49.9402 70.7044 48.6329 69.3971L40.3367 61.1009C39.0293 59.7936 39.0293 57.674 40.3367 56.3666L54.1401 42.5632L50.9798 39.4029L30.9363 59.1057L36.6341 64.8034C37.9414 66.1108 37.9414 68.2304 36.6341 69.5377L31.1269 75.045L42.8444 86.7625Z" fill="white"/>
</g>
</g>
<defs>
<filter id="filter0_d_9_2" x="-22" y="-22" width="154" height="154" filterUnits="userSpaceOnUse" color-interpolation-filters="sRGB">
<feFlood flood-opacity="0" result="BackgroundImageFix"/>
<feColorMatrix in="SourceAlpha" type="matrix" values="0 0 0 0 0 0 0 0 0 0 0 0 0 0 0 0 0 0 127 0" result="hardAlpha"/>
<feOffset dx="4" dy="4"/>
<feGaussianBlur stdDeviation="12.5"/>
<feComposite in2="hardAlpha" operator="out"/>
<feColorMatrix type="matrix" values="0 0 0 0 0 0 0 0 0 0 0 0 0 0 0 0 0 0 0.25 0"/>
<feBlend mode="normal" in2="BackgroundImageFix" result="effect1_dropShadow_9_2"/>
<feBlend mode="normal" in="SourceGraphic" in2="effect1_dropShadow_9_2" result="shape"/>
</filter>
<clipPath id="clip0_9_2">
<rect width="103" height="103" fill="white"/>
</clipPath>
</defs>
</svg>
